<?xml version="1.0" standalone="no"?>
<!DOCTYPE svg PUBLIC "-//W3C//DTD SVG 20010904//EN"
 "http://www.w3.org/TR/2001/REC-SVG-20010904/DTD/svg10.dtd">
<svg version="1.0" xmlns="http://www.w3.org/2000/svg"
 width="500.000000pt" height="500.000000pt" viewBox="0 0 500.000000 500.000000"
 preserveAspectRatio="xMidYMid meet">
<metadata>
Created by potrace 1.11, written by Peter Selinger 2001-2013
</metadata>
<g transform="translate(0.000000,500.000000) scale(0.100000,-0.100000)"
fill="#000000" stroke="none">
<path d="M3708 4995 c-2 -2 -21 -5 -43 -8 -22 -3 -74 -15 -115 -26 -41 -12
-82 -23 -91 -26 -9 -2 -25 -8 -35 -13 -11 -5 -64 -31 -119 -58 -160 -78 -304
-182 -433 -314 -69 -71 -188 -220 -175 -220 4 0 3 -4 -3 -8 -18 -12 -89 -151
-118 -231 -54 -151 -61 -212 -60 -506 2 -327 0 -299 22 -277 9 9 40 35 67 57
28 22 52 42 55 45 3 3 32 23 65 45 33 21 64 45 68 52 4 7 16 13 27 13 10 0 20
4 22 8 7 16 263 152 287 152 5 0 11 3 13 8 5 12 377 143 443 156 6 1 19 5 30
9 11 3 31 8 45 11 24 5 65 14 85 20 6 2 27 6 48 11 l37 7 0 549 0 550 -60 -2
c-33 -1 -61 -3 -62 -4z"/>
<path d="M3808 3565 c-4 -4 -43 -12 -105 -19 -18 -3 -36 -7 -40 -9 -4 -3 -33
-8 -63 -12 -30 -4 -59 -10 -65 -13 -5 -4 -18 -7 -27 -8 -10 -1 -19 -3 -20 -4
-2 -1 -14 -3 -28 -5 -28 -3 -192 -49 -237 -66 -15 -6 -37 -13 -47 -15 -34 -6
-158 -55 -244 -95 -46 -22 -88 -39 -93 -39 -5 0 -9 -5 -9 -12 0 -6 -3 -9 -6
-5 -5 5 -45 -17 -129 -71 -11 -6 -27 -15 -35 -19 -8 -4 -17 -9 -20 -12 -3 -4
-31 -24 -62 -45 -31 -21 -58 -44 -60 -50 -3 -9 -2 -817 1 -854 1 -8 17 -4 51
13 28 14 50 22 50 19 0 -4 6 -2 13 4 6 6 48 22 92 37 44 15 89 31 100 36 23
10 354 95 405 104 19 3 40 7 45 9 6 1 33 7 60 11 28 5 52 9 55 10 3 1 19 4 35
8 17 3 46 9 65 11 19 3 46 8 60 10 70 13 149 26 185 31 22 3 49 7 60 9 11 3
23 5 28 5 10 1 9 1029 -2 1035 -4 3 -10 3 -13 1z"/>
<path d="M2105 3142 c-2 -2 -17 -6 -33 -8 -53 -8 -252 -92 -252 -106 0 -4 -5
-8 -12 -8 -41 0 -338 -272 -338 -310 0 -6 -4 -10 -8 -10 -32 0 -239 -399 -234
-450 0 -3 -4 -13 -10 -23 -5 -10 -18 -50 -28 -90 -17 -63 -20 -108 -20 -349 0
-153 3 -278 8 -278 4 0 25 16 47 35 22 19 43 35 47 35 3 0 13 6 20 14 15 15
286 196 294 196 2 0 23 12 47 27 41 26 310 163 320 163 3 0 34 13 69 29 35 16
111 46 169 66 l106 38 0 513 0 513 -36 6 c-36 6 -149 4 -156 -3z"/>
<path d="M3737 2183 c-2 -1 -50 -4 -107 -7 -58 -3 -116 -8 -130 -10 -14 -3
-52 -8 -85 -11 -53 -5 -84 -9 -147 -21 -25 -4 -111 -17 -133 -20 -11 -1 -20
-3 -20 -4 0 -2 -18 -6 -70 -15 -47 -8 -70 -13 -70 -15 0 -1 -8 -3 -19 -5 -88
-17 -334 -87 -366 -104 -9 -5 -29 -11 -45 -15 l-30 -6 0 -460 c0 -253 1 -460
2 -460 1 0 48 9 105 19 57 11 121 23 143 26 22 3 51 8 65 10 30 5 120 15 205
21 144 11 247 15 510 19 l280 5 3 528 2 528 -45 0 c-26 0 -47 -1 -48 -3z"/>
<path d="M2246 1854 c-22 -8 -49 -16 -60 -18 -27 -5 -247 -84 -351 -126 -101
-40 -163 -68 -300 -137 -60 -31 -120 -61 -132 -67 -13 -6 -23 -14 -23 -18 0
-5 -5 -8 -11 -8 -6 0 -53 -27 -105 -61 l-94 -61 0 -349 c0 -304 2 -349 15
-349 8 0 15 5 15 12 0 6 3 9 6 6 5 -6 89 25 161 59 17 8 40 16 50 18 10 2 20
4 23 5 3 1 8 2 13 1 4 0 7 3 7 8 0 5 10 11 23 14 33 8 200 66 217 76 9 5 35
12 58 16 23 4 44 11 48 16 3 5 9 7 14 4 5 -3 11 -1 15 5 4 6 10 8 14 6 4 -3
30 2 57 10 55 17 181 45 263 59 14 2 48 9 76 15 l51 11 1 430 c0 236 -2 431
-6 433 -3 2 -24 -3 -45 -10z"/>
<path d="M2985 862 c-2 -3 -40 -6 -84 -7 -72 -3 -143 -9 -228 -21 -16 -2 -53
-6 -83 -9 -30 -3 -59 -10 -65 -15 -7 -5 -10 -141 -10 -407 l1 -398 657 -3 657
-2 0 410 c0 225 -3 410 -7 411 -5 0 -15 2 -24 4 -46 9 -164 20 -314 31 -111 8
-494 12 -500 6z"/>
<path d="M2268 795 c-1 -1 -48 -6 -102 -9 -55 -4 -102 -8 -105 -10 -3 -2 -33
-7 -65 -10 -32 -4 -62 -8 -65 -10 -3 -2 -26 -7 -51 -10 -25 -3 -108 -22 -185
-42 -77 -20 -147 -37 -155 -39 -8 -2 -16 -4 -17 -5 -2 -2 -6 -3 -10 -4 -69
-18 -237 -69 -273 -83 -8 -4 -17 -7 -20 -8 -3 0 -15 -4 -27 -9 l-23 -7 0 -275
0 -274 568 0 568 0 -1 165 c0 91 -4 165 -8 165 -5 0 -5 5 -1 11 7 12 7 260 -1
267 -2 2 0 14 5 27 5 13 6 26 2 30 -4 3 -5 32 -4 64 2 44 -1 60 -12 64 -8 3
-16 4 -18 2z"/>
</g>
</svg>
